# xmcd CD database file
#
# Track frame offsets:
#	150
#	13467
#	25362
#	37820
#	49972
#	63512
#	77687
#	92370
#	105745
#	119275
#	133492
#	154657
#	166135
#	178942
#	191277
#	205635
#	218792
#	232117
#	244450
#	255827
#
# Disc length: 3570 seconds
#
# Revision: 0
# Processed by: cddbd v1.5.2PL0 Copyright (c) Steve Scherf et al.
# Submitted via: CDex 1.51
#
DISCID=130df014
DTITLE=George Shearing - Lullaby of Birdland
DYEAR=2006
DGENRE=Jazz
TTITLE0=Have You Met Miss Jones?
TTITLE1=I Only Have Eyes For You
TTITLE2=Consternation
TTITLE3=Cherokee
TTITLE4=Bebop's Fables
TTITLE5=Life With Feather
TTITLE6=September In The Rain
TTITLE7=Bop, Look And Listen
TTITLE8=Nothing But D. Best
TTITLE9=East Of The Sun (And West Of The Moon)
TTITLE10=In A Chinese Garden
TTITLE11=Carnegie Horizons
TTITLE12=I'll Remember April
TTITLE13=Jumping With Symphony Sid
TTITLE14=Tenderly
TTITLE15=Pick Yourself Up
TTITLE16=Roses Of Picardy
TTITLE17=There's A Lull In My Life
TTITLE18=We'll Be Together Again
TTITLE19=Lullaby Of Birdland
EXTD=YEAR: 2006
EXTT0=
EXTT1=
EXTT2=
EXTT3=
EXTT4=
EXTT5=
EXTT6=
EXTT7=
EXTT8=
EXTT9=
EXTT10=
EXTT11=
EXTT12=
EXTT13=
EXTT14=
EXTT15=
EXTT16=
EXTT17=
EXTT18=
EXTT19=
PLAYORDER=
